HIERARCHY
ROOT Hips
{
	OFFSET 0.000000 0.000000 0.000000
	CHANNELS 6 Xposition Yposition Zposition Xrotation Yrotation Zrotation
	JOINT LeftUpLeg_virtual
	{
		OFFSET 0.000000 0.000000 0.000000
		CHANNELS 3 Xrotation Yrotation Zrotation
		JOINT LeftUpLeg
		{
			OFFSET 15.427100 -6.655098 0.678600
			CHANNELS 3 Xrotation Yrotation Zrotation
			JOINT LeftLeg
			{
				OFFSET 4.081073 -39.591068 13.024000
				CHANNELS 3 Xrotation Yrotation Zrotation
				JOINT LeftFoot
				{
					OFFSET -4.081074 -37.707932 -15.979700
					CHANNELS 3 Xrotation Yrotation Zrotation
					JOINT LeftToeBase
					{
						OFFSET 5.346399 -15.068900 20.645000
						CHANNELS 3 Xrotation Yrotation Zrotation
						JOINT LeftToe_End
						{
							OFFSET 2.754700 0.931300 11.300900
							CHANNELS 3 Xrotation Yrotation Zrotation
							End Site
							{
								OFFSET 0 0 0
							}
						}
					}
				}
			}
		}
	}
	JOINT RightUpLeg_virtual
	{
		OFFSET 0.000000 0.000000 0.000000
		CHANNELS 3 Xrotation Yrotation Zrotation
		JOINT RightUpLeg
		{
			OFFSET -15.569500 -6.655098 0.678600
			CHANNELS 3 Xrotation Yrotation Zrotation
			JOINT RightLeg
			{
				OFFSET -4.081825 -39.591045 13.023800
				CHANNELS 3 Xrotation Yrotation Zrotation
				JOINT RightFoot
				{
					OFFSET 4.081824 -37.707954 -15.979600
					CHANNELS 3 Xrotation Yrotation Zrotation
					JOINT RightToeBase
					{
						OFFSET -5.346400 -15.068900 20.645000
						CHANNELS 3 Xrotation Yrotation Zrotation
						JOINT RightToe_End
						{
							OFFSET -2.754700 0.931300 11.300900
							CHANNELS 3 Xrotation Yrotation Zrotation
							End Site
							{
								OFFSET 0 0 0
							}
						}
					}
				}
			}
		}
	}
	JOINT Spine_virtual
	{
		OFFSET 0.000000 0.000000 0.000000
		CHANNELS 3 Xrotation Yrotation Zrotation
		JOINT Spine
		{
			OFFSET -0.279200 12.230698 -2.892100
			CHANNELS 3 Xrotation Yrotation Zrotation
			JOINT Spine1
			{
				OFFSET -0.232667 10.192268 -1.242267
				CHANNELS 3 Xrotation Yrotation Zrotation
				JOINT Spine1_split
				{
					OFFSET -0.232667 10.192268 -1.242267
					CHANNELS 3 Xrotation Yrotation Zrotation
					JOINT Spine2
					{
						OFFSET -0.232667 10.192268 -1.242267
						CHANNELS 3 Xrotation Yrotation Zrotation
						JOINT Neck_virtual
						{
							OFFSET 0.000000 0.000000 0.000000
							CHANNELS 3 Xrotation Yrotation Zrotation
							JOINT Neck
							{
								OFFSET -0.418800 17.814194 8.416900
								CHANNELS 3 Xrotation Yrotation Zrotation
								JOINT Head
								{
									OFFSET 0.000000 7.031097 3.806800
									CHANNELS 3 Xrotation Yrotation Zrotation
									JOINT HeadTop_End
									{
										OFFSET 0.000000 24.646606 12.978600
										CHANNELS 3 Xrotation Yrotation Zrotation
										End Site
										{
											OFFSET 0 0 0
										}
									}
								}
							}
						}
						JOINT LeftShoulder_virtual
						{
							OFFSET 0.000000 0.000000 0.000000
							CHANNELS 3 Xrotation Yrotation Zrotation
							JOINT LeftShoulder
							{
								OFFSET 8.476499 7.247704 -3.868750
								CHANNELS 3 Xrotation Yrotation Zrotation
								JOINT LeftShoulder_split
								{
									OFFSET 8.476499 7.247704 -3.868750
									CHANNELS 3 Xrotation Yrotation Zrotation
									JOINT LeftArm
									{
										OFFSET 9.308998 -2.777710 0.208600
										CHANNELS 3 Xrotation Yrotation Zrotation
										JOINT LeftForeArm
										{
											OFFSET 29.972298 0.000000 0.000000
											CHANNELS 3 Xrotation Yrotation Zrotation
											JOINT LeftHand
											{
												OFFSET 26.026505 0.000000 0.000000
												CHANNELS 3 Xrotation Yrotation Zrotation
												End Site
												{
													OFFSET 0 0 0
												}
											}
										}
									}
								}
							}
						}
						JOINT RightShoulder_virtual
						{
							OFFSET 0.000000 0.000000 0.000000
							CHANNELS 3 Xrotation Yrotation Zrotation
							JOINT RightShoulder
							{
								OFFSET -7.570500 7.247704 -3.868750
								CHANNELS 3 Xrotation Yrotation Zrotation
								JOINT RightShoulder_split
								{
									OFFSET -7.570500 7.247704 -3.868750
									CHANNELS 3 Xrotation Yrotation Zrotation
									JOINT RightArm
									{
										OFFSET -9.308998 -2.777710 0.208500
										CHANNELS 3 Xrotation Yrotation Zrotation
										JOINT RightForeArm
										{
											OFFSET -29.972300 0.000000 0.000000
											CHANNELS 3 Xrotation Yrotation Zrotation
											JOINT RightHand
											{
												OFFSET -26.026505 0.000000 0.000000
												CHANNELS 3 Xrotation Yrotation Zrotation
												End Site
												{
													OFFSET 0 0 0
												}
											}
										}
									}
								}
							}
						}
					}
				}
			}
		}
	}
}
MOTION
Frames: 7
Frame Time: 0.03333333
1.789377 90.716042 -49.155716 0.000000 0.000000 0.000000 167.323433 -67.113275 165.850940 -28.669176 6.974955 18.146332 36.127886 -1.652497 -2.391432 -7.264294 1.104533 -3.837036 2.566716 4.962171 -7.109716 0.000000 0.000000 0.000000 167.323433 -67.113275 165.850940 -14.258660 -13.596157 9.866333 25.238638 8.476162 0.269716 -13.726799 0.859913 -11.962259 -2.250479 -8.125662 0.521804 0.000000 0.000000 0.000000 167.323433 -67.113275 165.850940 4.570123 1.681310 5.391683 -5.164934 2.150014 -2.923068 0.000000 0.000000 0.000000 0.000000 0.000000 0.000000 -5.019356 1.931776 -3.197911 0.778539 24.374541 9.969769 4.517285 28.566474 -14.246891 0.000000 0.000000 0.000000 -5.019356 1.931776 -3.197911 1.072967 -0.392536 0.398384 0.000000 0.000000 0.000000 6.971141 0.203084 -68.561507 7.857126 -19.444652 -8.492506 0.000000 0.000000 0.000000 -5.019356 1.931776 -3.197911 2.343092 -3.462306 16.741308 0.000000 0.000000 0.000000 13.478350 29.342735 51.853553 13.446219 26.386573 -0.605798 0.000000 0.000000 0.000000 
0.744425 90.791969 -50.917862 0.000000 0.000000 0.000000 170.043406 -61.197238 168.761134 -28.864724 -0.117649 13.797357 36.008187 -1.389857 -2.215155 -6.177124 1.713902 -5.903011 2.574852 6.807096 -8.072505 0.000000 0.000000 0.000000 170.043406 -61.197238 168.761134 -13.256854 -11.396668 11.568483 24.543209 12.580726 1.166648 -12.640185 0.484688 -14.915142 -2.374898 -7.985131 0.467717 0.000000 0.000000 0.000000 170.043406 -61.197238 168.761134 5.113818 2.308207 5.301894 -5.105464 2.660216 -2.985249 0.000000 0.000000 0.000000 0.000000 0.000000 0.000000 -4.948701 2.420726 -3.321704 1.055484 22.542846 10.042758 3.926669 26.820372 -13.626396 0.000000 0.000000 0.000000 -4.948701 2.420726 -3.321704 1.084987 -0.270533 0.764948 0.000000 0.000000 0.000000 7.759412 1.002654 -69.954579 9.038388 -17.908095 -8.643458 0.000000 0.000000 0.000000 -4.948701 2.420726 -3.321704 2.402567 -3.497398 16.751811 0.000000 0.000000 0.000000 12.583202 31.110911 52.037756 13.766163 26.236985 -1.171567 0.000000 0.000000 0.000000 
-0.366658 91.065384 -52.928574 0.000000 0.000000 0.000000 171.918211 -55.381844 170.958337 -29.549912 -7.136705 9.575996 34.235312 -1.322553 -1.949646 -4.705478 2.253282 -7.143023 1.588649 10.307617 -9.424744 0.000000 0.000000 0.000000 171.918211 -55.381844 170.958337 -11.799282 -9.151860 12.947352 23.460349 16.508863 2.047590 -11.379922 0.168602 -17.626374 -2.532330 -7.847083 0.422491 0.000000 0.000000 0.000000 171.918211 -55.381844 170.958337 5.493610 2.762809 4.662627 -4.780151 2.924348 -2.745299 0.000000 0.000000 0.000000 0.000000 0.000000 0.000000 -4.630335 2.689119 -3.101841 1.155752 19.904788 9.110450 2.411542 23.932093 -11.826765 0.000000 0.000000 0.000000 -4.630335 2.689119 -3.101841 1.095807 -0.075106 0.979791 0.000000 0.000000 0.000000 7.590592 1.535482 -71.647339 10.023783 -14.552000 -9.196441 0.000000 0.000000 0.000000 -4.630335 2.689119 -3.101841 2.421331 -3.425012 16.328214 0.000000 0.000000 0.000000 10.845204 33.443885 52.653621 13.606757 25.436948 -1.713358 0.000000 0.000000 0.000000 
-1.465939 91.377235 -55.089249 0.000000 0.000000 0.000000 173.276900 -49.578301 172.649028 -31.368887 -12.480948 5.697605 31.830362 -2.643731 -1.696774 -2.744108 2.605426 -8.282952 1.874423 11.869049 -11.725316 0.000000 0.000000 0.000000 173.276900 -49.578301 172.649028 -10.131507 -6.977549 14.070793 22.312549 20.326938 2.846403 -10.052106 -0.010770 -20.091939 -2.711720 -7.717820 0.385990 0.000000 0.000000 0.000000 173.276900 -49.578301 172.649028 5.822428 3.138269 3.820818 -4.340192 3.082373 -2.375846 0.000000 0.000000 0.000000 0.000000 0.000000 0.000000 -4.206305 2.861860 -2.734082 0.950729 16.316506 7.563395 0.407512 19.778522 -9.101177 0.000000 0.000000 0.000000 -4.206305 2.861860 -2.734082 1.107252 0.303894 0.807197 0.000000 0.000000 0.000000 7.408452 2.071022 -72.955183 10.915626 -11.563112 -9.734076 0.000000 0.000000 0.000000 -4.206305 2.861860 -2.734082 2.431046 -3.325996 15.793151 0.000000 0.000000 0.000000 8.839830 35.899249 53.578125 13.326697 24.465241 -2.246114 0.000000 0.000000 0.000000 
-2.454611 91.783585 -57.308678 0.000000 0.000000 0.000000 174.297057 -43.785337 174.041075 -33.328034 -15.100133 2.371131 28.476372 -5.822343 -1.494911 -0.841075 2.759998 -8.698569 1.692784 11.247016 -12.677618 0.000000 0.000000 0.000000 174.297057 -43.785337 174.041075 -8.319596 -4.935007 14.866697 21.015882 24.054239 3.544869 -8.537060 -0.016190 -22.243488 -2.901947 -7.600909 0.358167 0.000000 0.000000 0.000000 174.297057 -43.785337 174.041075 6.122179 3.431565 2.807625 -3.823017 3.170198 -1.918939 0.000000 0.000000 0.000000 0.000000 0.000000 0.000000 -3.711999 2.972067 -2.266646 1.045935 12.881305 6.238501 -1.276177 15.692100 -6.400003 0.000000 0.000000 0.000000 -3.711999 2.972067 -2.266646 1.128075 0.848193 0.264309 0.000000 0.000000 0.000000 7.633034 2.661696 -73.734925 11.313413 -9.654538 -10.121441 0.000000 0.000000 0.000000 -3.711999 2.972067 -2.266646 2.440287 -3.221747 15.234366 0.000000 0.000000 0.000000 6.725004 38.339129 54.763777 13.038071 23.453591 -2.773343 0.000000 0.000000 0.000000 
-3.318393 92.183075 -59.581985 0.000000 0.000000 0.000000 175.018857 -38.257327 175.102309 -35.172616 -17.184409 -0.357150 24.981202 -7.965458 -1.235475 2.757356 2.879037 -10.468273 1.167976 11.639500 -14.489546 0.000000 0.000000 0.000000 175.018857 -38.257327 175.102309 -6.431453 -3.159847 15.456909 19.743177 27.653074 4.101188 -7.021528 0.071178 -24.134337 -3.091921 -7.501684 0.338475 0.000000 0.000000 0.000000 175.018857 -38.257327 175.102309 6.450214 3.643958 1.853199 -3.332908 3.215097 -1.491992 0.000000 0.000000 0.000000 0.000000 0.000000 0.000000 -3.245039 3.039650 -1.825542 1.967951 9.973768 5.143722 -2.713794 12.030565 -3.645689 0.000000 0.000000 0.000000 -3.245039 3.039650 -1.825542 1.160115 1.423522 -0.352706 0.000000 0.000000 0.000000 8.211006 3.231013 -74.239819 11.193044 -8.407376 -10.459093 0.000000 0.000000 0.000000 -3.245039 3.039650 -1.825542 2.449885 -3.114370 14.659353 0.000000 0.000000 0.000000 4.548038 40.712319 56.200036 12.752586 22.436099 -3.289716 0.000000 0.000000 0.000000 
-4.047562 92.552826 -62.024925 0.000000 0.000000 0.000000 175.432384 -33.744345 175.790464 -36.591451 -17.858262 -2.370695 21.480224 -9.311297 -0.947513 4.148280 3.005213 -11.396821 0.655669 9.305157 -14.398206 0.000000 0.000000 0.000000 175.432384 -33.744345 175.790464 -4.300580 -1.684921 15.861677 18.206510 30.410195 4.606937 -5.722779 0.402868 -25.721960 -3.270623 -7.424580 0.326394 0.000000 0.000000 0.000000 175.432384 -33.744345 175.790464 6.824335 3.634988 1.145802 -2.958952 3.119213 -1.202292 0.000000 0.000000 0.000000 0.000000 0.000000 0.000000 -2.890250 2.964198 -1.511319 2.974940 7.288114 4.162601 -3.657078 8.610141 -1.318654 0.000000 0.000000 0.000000 -2.890250 2.964198 -1.511319 1.203326 2.030702 -1.104458 0.000000 0.000000 0.000000 8.996729 3.600608 -74.207082 10.679360 -7.754176 -10.762614 0.000000 0.000000 0.000000 -2.890250 2.964198 -1.511319 2.461200 -3.000611 14.094143 0.000000 0.000000 0.000000 3.695082 42.211604 57.170411 12.786347 22.710096 -4.000865 0.000000 0.000000 0.000000 
